<svg width="21" height="21" viewBox="0 0 21 21"  xmlns="http://www.w3.org/2000/svg">
<path d="M0.975276 0.975947C1.6017 0.35098 2.45044 0 3.3353 0C4.22017 0 5.06891 0.35098 5.69533 0.975947L10.0085 5.28747L14.3102 0.975947C14.9369 0.351377 15.7855 0.000670945 16.6703 0.000670945C17.555 0.000670945 18.4037 0.351377 19.0303 0.975947V0.975947C19.6553 1.60237 20.0062 2.45111 20.0062 3.33597C20.0062 4.22084 19.6553 5.06958 19.0303 5.696L14.7139 9.99938L19.0254 14.3109C19.65 14.9375 20.0007 15.7862 20.0007 16.6709C20.0007 17.5557 19.65 18.4043 19.0254 19.031V19.031C18.3988 19.6555 17.5501 20.0062 16.6654 20.0062C15.7806 20.0062 14.932 19.6555 14.3054 19.031L9.99871 14.7146L5.69533 19.0261C5.06869 19.6506 4.22004 20.0014 3.3353 20.0014C2.45057 20.0014 1.60191 19.6506 0.975276 19.0261V19.0261C0.350706 18.3994 0 17.5508 0 16.6661C0 15.7813 0.350706 14.9327 0.975276 14.306L5.28354 9.99938L0.975276 5.68623C0.353285 5.06022 0.00419048 4.21357 0.00419048 3.33109C0.00419048 2.44861 0.353285 1.60196 0.975276 0.975947V0.975947Z" />
</svg>
